<svg xmlns="http://www.w3.org/2000/svg" viewBox="0 0 1440 320"><path fill="#0099ff" fill-opacity="1" d="M0,128L34.3,154.7C68.6,181,137,235,206,229.3C274.3,224,343,160,411,165.3C480,171,549,245,617,256C685.7,267,754,213,823,197.3C891.4,181,960,203,1029,208C1097.1,213,1166,203,1234,181.3C1302.9,160,1371,128,1406,112L1440,96L1440,320L1405.7,320C1371.4,320,1303,320,1234,320C1165.7,320,1097,320,1029,320C960,320,891,320,823,320C754.3,320,686,320,617,320C548.6,320,480,320,411,320C342.9,320,274,320,206,320C137.1,320,69,320,34,320L0,320Z"></path></svg>
